<?xml version="1.0" encoding="iso-8859-1"?>
<!-- Uploaded to: SVG Repo, www.svgrepo.com, Generator: SVG Repo Mixer Tools -->
<!DOCTYPE svg PUBLIC "-//W3C//DTD SVG 1.1//EN" "http://www.w3.org/Graphics/SVG/1.1/DTD/svg11.dtd">
<svg fill="#000000" height="800px" width="800px" version="1.1" id="Capa_1" xmlns="http://www.w3.org/2000/svg" xmlns:xlink="http://www.w3.org/1999/xlink" 
	 viewBox="0 0 210.333 210.333" xml:space="preserve">
<path d="M204.755,55.568L181.463,78.86c-0.977,0.976-2.256,1.464-3.536,1.464s-2.559-0.488-3.536-1.464l-42.919-42.919
	c-1.953-1.953-1.953-5.119,0-7.071l23.292-23.292C158.362,1.981,163.144,0,168.232,0c5.087,0,9.87,1.981,13.467,5.578l23.056,23.057
	C212.18,36.06,212.18,48.143,204.755,55.568z M160.125,90.118l-27.421,27.421l1.504,1.504c1.953,1.953,1.953,5.119,0,7.071
	l-74.849,74.849l-0.001,0l-3.779,3.779c-3.604,3.604-8.396,5.589-13.492,5.589s-9.889-1.985-13.492-5.589L5.589,181.738
	c-7.439-7.439-7.439-19.545,0-26.984l17.516-17.517c0.001-0.001,0.002-0.001,0.003-0.002l61.11-61.11
	c1.953-1.952,5.118-1.952,7.071,0l1.74,1.74l27.422-27.421c1.954-1.952,5.119-1.951,7.071,0l32.603,32.603
	C162.078,85,162.078,88.166,160.125,90.118z M48.752,197.429l-35.848-35.848l-0.244,0.244c-1.715,1.715-2.66,3.996-2.66,6.421
	s0.945,4.706,2.66,6.421l23.006,23.006c1.715,1.715,3.995,2.66,6.421,2.66c2.425,0,4.706-0.945,6.421-2.66L48.752,197.429z
	 M149.518,86.583l-25.531-25.532l-23.886,23.886l25.532,25.532L149.518,86.583z"/>
</svg>